<?xml version="1.0" encoding="utf-8"?>
<!-- Svg Vector Icons : http://www.onlinewebfonts.com/icon -->
<!DOCTYPE svg PUBLIC "-//W3C//DTD SVG 1.1//EN" "http://www.w3.org/Graphics/SVG/1.1/DTD/svg11.dtd">
<svg version="1.1" xmlns="http://www.w3.org/2000/svg" xmlns:xlink="http://www.w3.org/1999/xlink" x="0px" y="0px" viewBox="0 0 256 256" enable-background="new 0 0 256 256" xml:space="preserve">
<metadata> Svg Vector Icons : http://www.onlinewebfonts.com/icon </metadata>
<g><g><path fill="#000000" d="M238.1,180.8c-12.4,34.8-28.8,28.8-28.8,28.8v9.6c0,5.3-4.3,9.6-9.6,9.6s-9.6-4.3-9.6-9.6v-9.6H70v9.6c0,5.3-4.3,9.6-9.6,9.6s-9.6-4.3-9.6-9.6v-9.6c-28,4.4-61.6-89.3-24-96.1c37.6-6.8,33.6,43.2,33.6,43.2c76.1-21.6,139.3,0,139.3,0c-3.6-32.8,8.4-47.2,28.8-43.2C248.9,117.6,250.5,146,238.1,180.8z M218.9,99.2c-34.5,6.4-28.8,43.2-28.8,43.2c-63.6-12.4-120.1,0-120.1,0c-0.8-22.6-17.2-36.8-33.6-43.2c-28.4-11.1,4-72.1,96.1-72.1C211.7,27.1,250.3,93.3,218.9,99.2z"/></g></g>
</svg>