<?xml version="1.0" encoding="utf-8"?>
<!-- Svg Vector Icons : http://www.onlinewebfonts.com/icon -->
<!DOCTYPE svg PUBLIC "-//W3C//DTD SVG 1.1//EN" "http://www.w3.org/Graphics/SVG/1.1/DTD/svg11.dtd">
<svg version="1.1" xmlns="http://www.w3.org/2000/svg" xmlns:xlink="http://www.w3.org/1999/xlink" x="0px" y="0px" viewBox="0 0 256 256" enable-background="new 0 0 256 256" xml:space="preserve">
<metadata> Svg Vector Icons : http://www.onlinewebfonts.com/icon </metadata>
<g><g><g><path fill="#000000" d="M117.2,10.4c-23,2.4-43.7,10.6-62,24.8c-5,3.9-16,14.9-19.9,19.9C15,81.4,6.5,113.3,11.3,145.4c1.8,12.1,5.2,22.9,10.9,34.4c11.1,22.6,29,40.9,51.4,52.8c37.5,19.6,83.3,17.4,118.7-5.9c18.1-11.9,32.1-27.7,41.5-46.9c5.4-11,8.7-21.1,10.6-32.5c5.4-32.7-2.9-65.3-23.6-92.2c-6.9-9-19.9-20.7-30.5-27.4c-4.6-2.9-16.2-8.6-21.7-10.6c-6.4-2.4-16-4.8-23.1-5.9C138.3,10.2,123.6,9.7,117.2,10.4z M146.4,20.1c40.7,7.2,73.5,36,85.9,75.2c3.4,10.7,4.9,20.8,4.9,33.2c0,28.6-10.8,55-31.1,76l-5.2,5.3l-20.5-10.3c-11.3-5.6-21.2-10.7-21.9-11.3c-2.9-2.1-3.4-4.1-3.4-12.5v-7.4l3.5-5.1c3.7-5.4,6.5-10.9,8.9-16.9c1.3-3.2,1.8-3.9,3.6-5c2.5-1.6,4.9-4.8,5.9-8c0.6-2,0.7-4.2,0.6-13.4c-0.1-10.5-0.2-11.1-1.2-13c-0.6-1.2-1.3-2.4-1.7-2.8c-0.5-0.6-0.6-4.2-0.8-15.7c-0.2-14.2-0.2-15.2-1.2-18.2c-4-12.1-13.2-20.3-26.6-23.7c-6-1.5-9.9-1.9-18.2-1.9c-8.3,0-12.2,0.4-18,1.8c-13.6,3.4-22.8,11.6-26.8,23.7c-1,3-1.1,4.1-1.2,18.2c-0.1,11.5-0.3,15.1-0.8,15.7c-0.3,0.4-1.1,1.6-1.7,2.8c-1.1,2-1.1,2.4-1.1,14.1c0,11.6,0,12.1,1.1,14.2c0.6,1.2,1.8,3,2.8,4.1c1.2,1.4,2.1,3.2,3,6.1c1.7,5.3,5.9,14.2,9.2,19l2.6,3.8v6.7c0,7.8-0.5,9.8-2.8,12.1c-1,1-8.3,5.2-18,10.5c-9,4.9-17.5,9.5-19,10.4l-2.7,1.5l-5-5.2c-16.8-17.4-27.1-38.7-30.2-62.5c-0.9-7.1-0.9-20.3,0-27.4c3.3-24.9,14.8-48,32.6-64.9c17.4-16.6,38-26.6,62-30C121.2,18.4,139,18.7,146.4,20.1z"/></g></g></g>
</svg>