<svg xmlns="http://www.w3.org/2000/svg" width="31.443" height="30.526" id="football">
  <path fill-rule="evenodd" d="M26.782 4.465a14.188 14.188 0 0 0-4.988-3.216A15.82 15.82 0 0 0 15.694 0a16.321 16.321 0 0 0-6.1 1.249 14.657 14.657 0 0 0-4.991 3.282 15.026 15.026 0 0 0-3.346 4.792 14.318 14.318 0 0 0-1.261 5.973 14.017 14.017 0 0 0 1.248 5.909 14.6 14.6 0 0 0 3.346 4.858 16.891 16.891 0 0 0 4.991 3.282 16.306 16.306 0 0 0 6.1 1.182 15.829 15.829 0 0 0 6.1-1.182 16.373 16.373 0 0 0 5.054-3.282 14.554 14.554 0 0 0 3.361-4.859 15.088 15.088 0 0 0 1.249-5.909 15.415 15.415 0 0 0-1.249-5.972 16.256 16.256 0 0 0-3.412-4.858ZM7.024 3.481c.131-.131.262-.2.394-.33a18.019 18.019 0 0 1 2.494-1.312A15.883 15.883 0 0 1 15.69.723a16.768 16.768 0 0 1 4 .526 7.476 7.476 0 0 0-2.167 1.443 8.815 8.815 0 0 0-2.625 0 12.619 12.619 0 0 0-3.413.724 10.2 10.2 0 0 0-2.363 1.049 25.249 25.249 0 0 0-2.429-.787.877.877 0 0 0 .328-.2Zm14.311 3.806-2.692 7.09-6.433 1.248c-3.676-3.676-7.157-5.053-3.282-9.912a12.023 12.023 0 0 1 2.888-1.379 14.143 14.143 0 0 1 3.216-.721 11.134 11.134 0 0 1 2.56.065ZM1.313 14.771a13.168 13.168 0 0 0-.131 3.218 5.91 5.91 0 0 1-.33-.658C.787 16.675.72 15.953.72 15.295a14.268 14.268 0 0 1 1.315-6.038 17.543 17.543 0 0 0 .065 2.692 10.68 10.68 0 0 0-.787 2.822Zm1.312 5.579a14.18 14.18 0 0 1-.459-2.3 12.67 12.67 0 0 1 .721-5.384c3.94-3.282 5.318.328 8.536 3.546l-.527 5.784c-4.727 1.51-5.188 2.756-8.273-1.642Zm10.306 9.257a17.83 17.83 0 0 1-3.741-1.182 19.359 19.359 0 0 1-2.888-1.838c1.443-2.495-2.1-1.445 5.055-3.741l5.972 2.493c1.052 4.4 1.249 4.07-4.4 4.268Zm15.1-6.039a13.916 13.916 0 0 1-3.218 3.281c-4.465 3.019-5.644 1.772-6.563-1.773l4.2-4.264c4.857-.395 5.448-1.775 5.845 2.362a1.329 1.329 0 0 0-.263.394Zm-5.517-3.744-2.953-5.053 2.692-7.091 3.808.2a13.292 13.292 0 0 1 2.1 2.166 10.619 10.619 0 0 1 1.77 3.284c-.852 7.089-1.179 5.972-7.418 6.5Zm7.55-8.6a12.913 12.913 0 0 0-1.115-1.773 14.13 14.13 0 0 0-2.429-2.429 6.706 6.706 0 0 0-1.839-3.412.064.064 0 0 0 .066.065c.066.065.131.131.2.131a18.686 18.686 0 0 1 2.362 2.232 14.1 14.1 0 0 1 2.758 5.186Z"></path>
</svg>
